<?xml version="1.0" encoding="utf-8"?>
<!-- Generator: Adobe Illustrator 16.0.0, SVG Export Plug-In . SVG Version: 6.00 Build 0)  -->
<!DOCTYPE svg PUBLIC "-//W3C//DTD SVG 1.1//EN" "http://www.w3.org/Graphics/SVG/1.1/DTD/svg11.dtd">
<svg version="1.1" id="Calque_1" xmlns="http://www.w3.org/2000/svg" xmlns:xlink="http://www.w3.org/1999/xlink" x="0px" y="0px"
	 width="28.688px" height="31.125px" viewBox="-2.688 -7.125 28.688 31.125" enable-background="new -2.688 -7.125 28.688 31.125"
	 xml:space="preserve">
<g>
	<path fill="none" stroke="#9E0D0D" stroke-width="2" stroke-linecap="round" d="M9.29,16.563V6.188"/>
	<path fill="none" stroke="#9E0D0D" stroke-width="2" stroke-linecap="round" d="M13.29,16.563V6.188"/>
	<path fill="none" stroke="#9E0D0D" stroke-width="2" stroke-linecap="round" d="M2.29,2.125h18l0,0c-0.932,0-1.398,0-1.766,0.209
		c-0.49,0.279-0.879,0.814-1.082,1.488C17.29,4.328,17.29,4.969,17.29,6.25v8.25c0,2.593,0,3.889-0.586,4.694S15.176,20,13.29,20h-4
		c-1.886,0-2.829,0-3.414-0.806C5.29,18.389,5.29,17.093,5.29,14.5V6.25c0-1.281,0-1.922-0.152-2.428
		C4.935,3.149,4.545,2.614,4.055,2.334C3.688,2.125,3.222,2.125,2.29,2.125L2.29,2.125z"/>
</g>
<path fill="none" stroke="#9E0D0D" stroke-width="2" stroke-linecap="round" d="M8.778-0.865c0.148-0.146,0.475-0.275,0.93-0.367
	c0.454-0.093,1.01-0.143,1.583-0.143c0.573,0,1.129,0.05,1.582,0.143c0.455,0.092,0.782,0.221,0.93,0.367"/>
</svg>
