<?xml version="1.0" encoding="utf-8"?>
<!-- Generator: Adobe Illustrator 16.0.0, SVG Export Plug-In . SVG Version: 6.00 Build 0)  -->
<!DOCTYPE svg PUBLIC "-//W3C//DTD SVG 1.1//EN" "http://www.w3.org/Graphics/SVG/1.1/DTD/svg11.dtd">
<svg version="1.1" id="Calque_1" xmlns="http://www.w3.org/2000/svg" xmlns:xlink="http://www.w3.org/1999/xlink" x="0px" y="0px"
	 width="29.25px" height="31px" viewBox="-2.417 -2.917 29.25 31" enable-background="new -2.417 -2.917 29.25 31"
	 xml:space="preserve">
<path fill="none" d="M13.729,6.368l-9.375,9.376c-0.302,0.302-0.455,0.454-0.566,0.63c-0.11,0.176-0.173,0.363-0.3,0.741
	l-1.579,4.706c-0.142,0.426-0.214,0.64-0.113,0.738c0.1,0.104,0.314,0.031,0.74-0.11l4.706-1.581
	c0.378-0.127,0.566-0.189,0.743-0.299c0.175-0.112,0.327-0.264,0.63-0.565l9.375-9.376L13.729,6.368z"/>
<path fill="none" stroke="#2253AA" stroke-width="1.2" d="M3.426,22.351L3.426,22.351l0.033-0.014l0,0l3.393-1.291
	c0.021-0.008,0.042-0.017,0.062-0.023c0.283-0.109,0.554-0.212,0.811-0.383c0.26-0.168,0.477-0.388,0.705-0.614
	c0.017-0.017,0.033-0.034,0.05-0.051L18.742,9.712l0,0l0.039-0.039c0.443-0.441,0.834-0.833,1.117-1.182
	c0.308-0.375,0.57-0.795,0.642-1.281c0.07-0.488-0.079-0.849-0.288-1.15c-0.193-0.277-0.484-0.57-0.814-0.9l-0.029-0.027
	l-0.185-0.184l-0.027-0.027c-0.329-0.332-0.623-0.623-0.899-0.816c-0.301-0.209-0.662-0.359-1.149-0.287
	c-0.485,0.07-0.907,0.334-1.282,0.641c-0.348,0.283-0.738,0.675-1.182,1.117l-0.037,0.038L4.382,15.876
	c-0.017,0.016-0.033,0.034-0.049,0.049c-0.228,0.229-0.447,0.447-0.616,0.704c-0.17,0.259-0.274,0.532-0.381,0.814
	c-0.008,0.019-0.015,0.04-0.023,0.062l-1.307,3.426c-0.005,0.012-0.01,0.025-0.015,0.037c-0.076,0.199-0.162,0.424-0.207,0.611
	c-0.05,0.209-0.102,0.58,0.155,0.838c0.257,0.256,0.629,0.205,0.838,0.154c0.187-0.044,0.412-0.131,0.611-0.206
	C3.4,22.36,3.413,22.356,3.426,22.351z"/>
<path fill="none" stroke="#2253AA" stroke-width="1.2" d="M13.729,6.368l4.259,4.26"/>
<rect x="0.021" y="-1.964" transform="matrix(0.7071 0.7071 -0.7071 0.7071 12.7758 -3.77)" fill="none" width="21.834" height="31"/>
</svg>
