<svg width="60" height="60" viewBox="0 0 60 60" fill="none" xmlns="http://www.w3.org/2000/svg">
<g filter="url(#filter0_d_329_1682)">
<path d="M31.9161 30L37.1014 35.1854L35.2161 37.0667L30.0308 31.8814L24.8454 37.0667L22.9588 35.1854L28.1441 30L22.9588 24.8147L24.8454 22.9334L30.0308 28.1187L35.2161 22.9334L37.1014 24.8187L31.9161 30ZM43.3334 30C43.3334 32.6371 42.5514 35.215 41.0863 37.4076C39.6213 39.6003 37.5389 41.3092 35.1025 42.3184C32.6662 43.3276 29.9853 43.5916 27.3989 43.0772C24.8125 42.5627 22.4367 41.2928 20.572 39.4281C18.7073 37.5634 17.4374 35.1876 16.923 32.6012C16.4085 30.0148 16.6725 27.3339 17.6817 24.8976C18.6909 22.4612 20.3998 20.3788 22.5925 18.9138C24.7851 17.4487 27.363 16.6667 30.0001 16.6667C33.5363 16.6667 36.9277 18.0714 39.4282 20.5719C41.9287 23.0724 43.3334 26.4638 43.3334 30ZM40.9334 30C40.9334 27.8376 40.2922 25.7238 39.0908 23.9258C37.8895 22.1278 36.1819 20.7265 34.1841 19.8989C32.1863 19.0714 29.988 18.8549 27.8671 19.2768C25.7462 19.6986 23.7981 20.7399 22.2691 22.269C20.74 23.798 19.6987 25.7462 19.2768 27.867C18.855 29.9879 19.0715 32.1862 19.899 34.184C20.7265 36.1818 22.1279 37.8894 23.9259 39.0908C25.7238 40.2921 27.8377 40.9334 30.0001 40.9334C32.8987 40.9298 35.6776 39.7768 37.7272 37.7272C39.7769 35.6775 40.9299 32.8986 40.9334 30Z" fill="#00FFF0"/>
</g>
<defs>
<filter id="filter0_d_329_1682" x="0.666748" y="0.666687" width="58.6667" height="58.6667" filterUnits="userSpaceOnUse" color-interpolation-filters="sRGB">
<feFlood flood-opacity="0" result="BackgroundImageFix"/>
<feColorMatrix in="SourceAlpha" type="matrix" values="0 0 0 0 0 0 0 0 0 0 0 0 0 0 0 0 0 0 127 0" result="hardAlpha"/>
<feOffset/>
<feGaussianBlur stdDeviation="8"/>
<feComposite in2="hardAlpha" operator="out"/>
<feColorMatrix type="matrix" values="0 0 0 0 0 0 0 0 0 1 0 0 0 0 0.941176 0 0 0 0.6 0"/>
<feBlend mode="normal" in2="BackgroundImageFix" result="effect1_dropShadow_329_1682"/>
<feBlend mode="normal" in="SourceGraphic" in2="effect1_dropShadow_329_1682" result="shape"/>
</filter>
</defs>
</svg>
