<svg width="18" height="13" viewBox="0 0 18 13" fill="none" xmlns="http://www.w3.org/2000/svg">
<path d="M7.56137 12.6447C7.37496 12.6447 7.19702 12.56 7.0784 12.4244L6.12941 11.3145C5.90063 11.0433 5.93452 10.6451 6.19719 10.4163C6.46833 10.1875 6.86657 10.2214 7.09534 10.4841L7.54442 11.0179L16.204 0.40106C16.4243 0.129919 16.8225 0.0875537 17.1021 0.307855C17.3733 0.528157 17.4156 0.926395 17.1953 1.20601L8.05281 12.4075C7.93418 12.5515 7.75625 12.6363 7.56137 12.6447ZM4.15516 11.6195C3.97723 11.6195 3.80777 11.5432 3.68914 11.4161L0.833693 8.29803C0.596445 8.03536 0.613391 7.63712 0.876059 7.39987C1.13873 7.16263 1.53696 7.17957 1.77421 7.44224L4.12974 10.0096L11.3658 1.09586C11.5861 0.824717 11.9843 0.782351 12.2555 1.00265C12.5266 1.22295 12.569 1.62119 12.3487 1.89233L4.64661 11.3822C4.52798 11.5263 4.35852 11.611 4.17211 11.6195C4.17211 11.6195 4.16364 11.6195 4.15516 11.6195Z" fill="#00FFF0"/>
</svg>
