<svg width="56" height="56" viewBox="0 0 56 56" fill="none" xmlns="http://www.w3.org/2000/svg">
<g filter="url(#filter0_d_606_74)">
<path d="M35.2624 16C35.0294 15.9959 34.7978 16.038 34.5811 16.1239C34.3644 16.2097 34.1669 16.3377 34 16.5004L17.0248 33.4696L16 39.7864L22.5304 38.9752L39.4996 22.006C40.2628 21.2428 40.1392 19.8808 39.2224 18.964L37.036 16.7776C36.5701 16.2953 35.9329 16.0159 35.2624 16ZM36.4 21.8056L34.1944 19.6036L35.3764 18.4216L35.3848 18.4288L37.5712 20.6152L37.5784 20.6236L36.4 21.8056ZM18.8044 37.084L19.21 34.588L32.5432 21.2548L34.7452 23.4532L21.4456 36.7564L18.8056 37.084H18.8044Z" fill="#00FFF0"/>
</g>
<defs>
<filter id="filter0_d_606_74" x="0" y="-0.000274658" width="56" height="55.7867" filterUnits="userSpaceOnUse" color-interpolation-filters="sRGB">
<feFlood flood-opacity="0" result="BackgroundImageFix"/>
<feColorMatrix in="SourceAlpha" type="matrix" values="0 0 0 0 0 0 0 0 0 0 0 0 0 0 0 0 0 0 127 0" result="hardAlpha"/>
<feOffset/>
<feGaussianBlur stdDeviation="8"/>
<feComposite in2="hardAlpha" operator="out"/>
<feColorMatrix type="matrix" values="0 0 0 0 0 0 0 0 0 1 0 0 0 0 0.941176 0 0 0 0.6 0"/>
<feBlend mode="normal" in2="BackgroundImageFix" result="effect1_dropShadow_606_74"/>
<feBlend mode="normal" in="SourceGraphic" in2="effect1_dropShadow_606_74" result="shape"/>
</filter>
</defs>
</svg>
