<svg width="60" height="56" viewBox="0 0 60 56" fill="none" xmlns="http://www.w3.org/2000/svg">
<g filter="url(#filter0_d_692_1083)">
<path d="M36.1613 18.0053C37.1842 18.0056 38.1842 18.3092 39.0346 18.8777C39.8851 19.4462 40.5479 20.254 40.9394 21.1991C41.3308 22.1442 41.4333 23.1842 41.2338 24.1875C41.0343 25.1908 40.5418 26.1125 39.8186 26.836L29.9999 36.648L20.1813 26.8307C19.2356 25.8557 18.7114 24.5478 18.7217 23.1896C18.732 21.8314 19.2761 20.5317 20.2364 19.5711C21.1968 18.6106 22.4964 18.0663 23.8546 18.0557C25.2129 18.0452 26.5208 18.5692 27.4959 19.5147L28.5853 20.604L29.9999 22.0187L31.4146 20.604L32.5039 19.5147C32.9836 19.0339 33.5538 18.653 34.1815 18.3939C34.8093 18.1348 35.4822 18.0028 36.1613 18.0053ZM36.1613 16.0053C35.22 16.005 34.2879 16.1904 33.4185 16.551C32.549 16.9116 31.7593 17.4402 31.0946 18.1067L29.9999 19.1907L28.9106 18.1013C27.5639 16.7648 25.7423 16.0163 23.8449 16.0199C21.9475 16.0235 20.1288 16.7789 18.7872 18.1205C17.4455 19.4622 16.6901 21.2809 16.6865 23.1783C16.6829 25.0757 17.4314 26.8972 18.7679 28.244L29.9999 39.472L41.2319 28.2387C42.2343 27.2357 42.9168 25.9582 43.1935 24.5675C43.4701 23.1768 43.3284 21.7354 42.7862 20.4252C42.2441 19.115 41.3258 17.9949 40.1473 17.2063C38.9689 16.4177 37.5832 15.9961 36.1653 15.9947L36.1613 16.0053Z" fill="#00FFF0"/>
</g>
<defs>
<filter id="filter0_d_692_1083" x="0.686523" y="-0.00533295" width="58.6448" height="55.4773" filterUnits="userSpaceOnUse" color-interpolation-filters="sRGB">
<feFlood flood-opacity="0" result="BackgroundImageFix"/>
<feColorMatrix in="SourceAlpha" type="matrix" values="0 0 0 0 0 0 0 0 0 0 0 0 0 0 0 0 0 0 127 0" result="hardAlpha"/>
<feOffset/>
<feGaussianBlur stdDeviation="8"/>
<feComposite in2="hardAlpha" operator="out"/>
<feColorMatrix type="matrix" values="0 0 0 0 0 0 0 0 0 1 0 0 0 0 0.941176 0 0 0 0.6 0"/>
<feBlend mode="normal" in2="BackgroundImageFix" result="effect1_dropShadow_692_1083"/>
<feBlend mode="normal" in="SourceGraphic" in2="effect1_dropShadow_692_1083" result="shape"/>
</filter>
</defs>
</svg>
