<svg width="60" height="58" viewBox="0 0 60 58" fill="none" xmlns="http://www.w3.org/2000/svg">
<g filter="url(#filter0_d_329_1666)">
<path d="M38.9 34.8213C38.6523 34.8075 38.4082 34.8849 38.2138 35.039C38.0195 35.193 37.8883 35.4131 37.8453 35.6573L37.3333 38.524C37.3075 38.6815 37.226 38.8245 37.1036 38.927C36.9813 39.0295 36.8263 39.0848 36.6667 39.0827C36.626 39.083 36.5853 39.0795 36.5453 39.072L19.252 36.0213C19.0761 35.9891 18.9199 35.889 18.8174 35.7425C18.7148 35.596 18.6741 35.415 18.704 35.2387L19.8813 28.5627C19.9268 28.3044 19.8705 28.0385 19.724 27.8209C19.5775 27.6033 19.3524 27.451 19.096 27.396C18.9627 27.3672 18.825 27.3656 18.6911 27.3913C18.5572 27.417 18.4298 27.4694 18.3167 27.5455C18.2035 27.6215 18.1068 27.7197 18.0325 27.834C17.9582 27.9483 17.9076 28.0764 17.884 28.2107L16.708 34.8853C16.6458 35.2352 16.6532 35.5939 16.7297 35.9409C16.8062 36.2879 16.9504 36.6164 17.154 36.9077C17.3576 37.1989 17.6166 37.4472 17.9162 37.6383C18.2157 37.8294 18.5501 37.9595 18.9 38.0213L36.204 41.0733C36.3604 41.0998 36.5187 41.1132 36.6773 41.1133C37.3124 41.1121 37.9268 40.8872 38.4125 40.478C38.8982 40.0689 39.2242 39.5016 39.3333 38.876L39.84 36.0053C39.8647 35.8643 39.8592 35.7197 39.8241 35.5809C39.7889 35.4421 39.7247 35.3124 39.6358 35.2002C39.5469 35.088 39.4352 34.9959 39.3082 34.9299C39.1812 34.8639 39.0416 34.8255 38.8987 34.8173L38.9 34.8213ZM40.6333 16.004H23.0667C22.7114 16.0029 22.3594 16.0719 22.0309 16.207C21.7023 16.3421 21.4036 16.5407 21.1518 16.7913C20.9001 17.042 20.7002 17.3398 20.5636 17.6678C20.4271 17.9957 20.3565 18.3474 20.356 18.7027V30.8667C20.356 31.2223 20.4261 31.5745 20.5625 31.903C20.6988 32.2315 20.8985 32.5299 21.1503 32.781C21.4021 33.0322 21.701 33.2313 22.0298 33.3668C22.3587 33.5023 22.711 33.5715 23.0667 33.5707H40.6307C41.3476 33.5703 42.035 33.2853 42.5418 32.7782C43.0486 32.2712 43.3333 31.5836 43.3333 30.8667V18.7027C43.3333 17.9859 43.0486 17.2984 42.5417 16.7916C42.0349 16.2847 41.3474 16 40.6307 16L40.6333 16.004ZM23.0667 18.0213H40.6307C40.8097 18.0217 40.9813 18.0931 41.1078 18.2198C41.2343 18.3465 41.3053 18.5183 41.3053 18.6973V26.3093L39.052 23.1093C38.8205 22.7809 38.5194 22.5075 38.1702 22.3086C37.821 22.1097 37.4323 21.9902 37.0316 21.9587C36.631 21.9271 36.2284 21.9842 35.8523 22.1259C35.4763 22.2677 35.1361 22.4905 34.856 22.7787L29.776 27.9987L27.936 26.316C27.4498 25.8744 26.8215 25.6216 26.1649 25.6035C25.5084 25.5854 24.8671 25.8032 24.3573 26.2173L22.384 27.8333V18.7027C22.3835 18.6129 22.4008 18.524 22.4349 18.441C22.469 18.358 22.5193 18.2826 22.5828 18.2192C22.6463 18.1558 22.7218 18.1057 22.8049 18.0717C22.8879 18.0378 22.9769 18.0206 23.0667 18.0213ZM40.6307 31.5427H23.0667C22.8874 31.5427 22.7154 31.4714 22.5887 31.3447C22.4619 31.2179 22.3907 31.046 22.3907 30.8667V30.4547L25.648 27.788C25.7806 27.6793 25.948 27.6221 26.1194 27.6268C26.2908 27.6314 26.4548 27.6976 26.5813 27.8133L29.8587 30.8213L36.3093 24.1947C36.3818 24.1201 36.4698 24.0624 36.5672 24.0258C36.6645 23.9891 36.7687 23.9744 36.8724 23.9827C36.976 23.991 37.0766 24.022 37.1669 24.0737C37.2572 24.1253 37.3349 24.1962 37.3947 24.2813L41.3053 29.828V30.8667C41.3053 31.0457 41.2343 31.2175 41.1078 31.3442C40.9813 31.4709 40.8097 31.5423 40.6307 31.5427ZM26.4387 21.192C26.4387 20.9283 26.5169 20.6705 26.6634 20.4512C26.8099 20.232 27.0181 20.0611 27.2617 19.9602C27.5054 19.8592 27.7735 19.8328 28.0321 19.8843C28.2907 19.9357 28.5283 20.0627 28.7148 20.2492C28.9013 20.4357 29.0283 20.6732 29.0797 20.9319C29.1311 21.1905 29.1047 21.4586 29.0038 21.7022C28.9029 21.9459 28.732 22.1541 28.5127 22.3006C28.2935 22.4471 28.0357 22.5253 27.772 22.5253C27.4184 22.5253 27.0792 22.3849 26.8292 22.1348C26.5791 21.8848 26.4387 21.5456 26.4387 21.192Z" fill="#00FFF0"/>
</g>
<defs>
<filter id="filter0_d_329_1666" x="0.66626" y="0" width="58.667" height="57.1133" filterUnits="userSpaceOnUse" color-interpolation-filters="sRGB">
<feFlood flood-opacity="0" result="BackgroundImageFix"/>
<feColorMatrix in="SourceAlpha" type="matrix" values="0 0 0 0 0 0 0 0 0 0 0 0 0 0 0 0 0 0 127 0" result="hardAlpha"/>
<feOffset/>
<feGaussianBlur stdDeviation="8"/>
<feComposite in2="hardAlpha" operator="out"/>
<feColorMatrix type="matrix" values="0 0 0 0 0 0 0 0 0 1 0 0 0 0 0.941176 0 0 0 0.6 0"/>
<feBlend mode="normal" in2="BackgroundImageFix" result="effect1_dropShadow_329_1666"/>
<feBlend mode="normal" in="SourceGraphic" in2="effect1_dropShadow_329_1666" result="shape"/>
</filter>
</defs>
</svg>
