<svg width="60" height="56" viewBox="0 0 60 56" fill="none" xmlns="http://www.w3.org/2000/svg">
<g filter="url(#filter0_d_606_1792)">
<path d="M25.2494 19.272C25.7107 19.272 26.1615 19.4088 26.545 19.665C26.9285 19.9213 27.2274 20.2855 27.4039 20.7116C27.5804 21.1377 27.6266 21.6066 27.5366 22.059C27.4466 22.5113 27.2245 22.9268 26.8984 23.253C26.5723 23.5791 26.1568 23.8012 25.7044 23.8912C25.252 23.9812 24.7831 23.935 24.357 23.7585C23.9309 23.582 23.5667 23.2831 23.3104 22.8996C23.0542 22.5161 22.9174 22.0652 22.9174 21.604C22.9181 20.9857 23.1641 20.393 23.6012 19.9558C24.0384 19.5186 24.6312 19.2727 25.2494 19.272ZM25.2494 17.272C24.3926 17.2717 23.5549 17.5256 22.8423 18.0014C22.1298 18.4773 21.5743 19.1537 21.2462 19.9453C20.9182 20.7368 20.8322 21.6079 20.9992 22.4483C21.1662 23.2887 21.5787 24.0607 22.1844 24.6667C22.7902 25.2727 23.5621 25.6854 24.4025 25.8527C25.2428 26.0199 26.1139 25.9342 26.9056 25.6064C27.6972 25.2785 28.3739 24.7233 28.8499 24.0109C29.326 23.2984 29.5801 22.4608 29.5801 21.604C29.5801 20.4553 29.1239 19.3537 28.3118 18.5413C27.4996 17.7289 26.3981 17.2724 25.2494 17.272ZM33.8121 36.98L33.0574 31.0427C32.8957 29.8244 32.2967 28.7064 31.372 27.8969C30.4472 27.0874 29.2598 26.6417 28.0308 26.6427H22.4681C21.2391 26.6417 20.0517 27.0874 19.1269 27.8969C18.2022 28.7064 17.6031 29.8244 17.4414 31.0427L16.6868 36.98C16.6429 37.3424 16.673 37.7099 16.7753 38.0603C16.8775 38.4107 17.0497 38.7367 17.2814 39.0187C17.5894 39.3667 18.2388 39.952 19.1228 39.952H31.3761C32.2601 39.952 32.9094 39.3667 33.2174 39.0187C33.4492 38.7367 33.6214 38.4107 33.7236 38.0603C33.8258 37.7099 33.8559 37.3424 33.8121 36.98ZM31.7174 37.696C31.6275 37.8114 31.5076 37.9 31.3708 37.952H19.1281C18.9913 37.9 18.8714 37.8114 18.7814 37.696C18.6945 37.5572 18.6556 37.3937 18.6708 37.2307L19.4254 31.2973C19.5252 30.5614 19.8886 29.8868 20.4482 29.3985C21.0078 28.9103 21.7255 28.6417 22.4681 28.6427H28.0308C28.774 28.6419 29.4922 28.911 30.0519 29.4001C30.6115 29.8891 30.9746 30.5647 31.0734 31.3013L31.8281 37.2347C31.8423 37.3964 31.8035 37.5583 31.7174 37.696ZM36.4574 18C36.7475 18 37.0311 18.086 37.2723 18.2472C37.5135 18.4083 37.7015 18.6374 37.8125 18.9054C37.9235 19.1734 37.9525 19.4683 37.8959 19.7528C37.8393 20.0373 37.6996 20.2986 37.4945 20.5038C37.2894 20.7089 37.0281 20.8486 36.7436 20.9052C36.4591 20.9617 36.1642 20.9327 35.8962 20.8217C35.6282 20.7107 35.3991 20.5227 35.2379 20.2815C35.0768 20.0403 34.9908 19.7567 34.9908 19.4667C34.9908 19.0777 35.1453 18.7046 35.4203 18.4296C35.6954 18.1545 36.0685 18 36.4574 18ZM36.4574 16C35.7718 16 35.1016 16.2033 34.5315 16.5842C33.9614 16.9652 33.517 17.5066 33.2547 18.14C32.9923 18.7735 32.9236 19.4705 33.0574 20.143C33.1911 20.8154 33.5213 21.4331 34.0061 21.918C34.491 22.4028 35.1087 22.733 35.7811 22.8667C36.4536 23.0005 37.1506 22.9318 37.7841 22.6694C38.4175 22.4071 38.9589 21.9627 39.3399 21.3926C39.7208 20.8226 39.9241 20.1523 39.9241 19.4667C39.9241 18.5472 39.5589 17.6655 38.9087 17.0154C38.2586 16.3652 37.3769 16 36.4574 16ZM43.3174 31.792L42.7134 27.0347C42.5847 26.0576 42.1051 25.1608 41.364 24.5112C40.6229 23.8616 39.6709 23.5036 38.6854 23.504H34.2281C33.637 23.5042 33.0531 23.6332 32.517 23.8821C31.981 24.1311 31.5056 24.4939 31.1241 24.9453C31.0223 25.0677 30.9512 25.2128 30.9169 25.3683C30.8826 25.5237 30.886 25.6852 30.9269 25.8391C30.9677 25.993 31.0448 26.1349 31.1517 26.2529C31.2587 26.3709 31.3923 26.4616 31.5414 26.5173C31.7341 26.5893 31.9443 26.6003 32.1435 26.5488C32.3427 26.4973 32.5212 26.3858 32.6548 26.2293C32.849 26.0018 33.0902 25.8192 33.3618 25.694C33.6334 25.5687 33.929 25.5039 34.2281 25.504H38.6854C39.1845 25.5025 39.667 25.6825 40.0431 26.0105C40.4191 26.3385 40.6631 26.7921 40.7294 27.2867L41.3334 32.0387C41.3335 32.0692 41.3281 32.0994 41.3174 32.128C41.2988 32.1467 41.2814 32.1613 41.2681 32.1733H35.8974C35.7511 32.1731 35.6065 32.205 35.4738 32.267C35.3412 32.3289 35.2238 32.4192 35.1301 32.5316C35.0363 32.644 34.9684 32.7756 34.9312 32.9171C34.8939 33.0587 34.8884 33.2067 34.9148 33.3507C34.9563 33.581 35.0775 33.7895 35.2571 33.9396C35.4367 34.0897 35.6634 34.172 35.8974 34.172H41.3641C42.0734 34.172 42.5934 33.7027 42.8401 33.424C43.0258 33.1983 43.1639 32.9374 43.2459 32.6569C43.3279 32.3764 43.3523 32.0822 43.3174 31.792Z" fill="#00FFF0"/>
</g>
<defs>
<filter id="filter0_d_606_1792" x="0.667236" y="0" width="58.6655" height="55.952" filterUnits="userSpaceOnUse" color-interpolation-filters="sRGB">
<feFlood flood-opacity="0" result="BackgroundImageFix"/>
<feColorMatrix in="SourceAlpha" type="matrix" values="0 0 0 0 0 0 0 0 0 0 0 0 0 0 0 0 0 0 127 0" result="hardAlpha"/>
<feOffset/>
<feGaussianBlur stdDeviation="8"/>
<feComposite in2="hardAlpha" operator="out"/>
<feColorMatrix type="matrix" values="0 0 0 0 0 0 0 0 0 1 0 0 0 0 0.941176 0 0 0 0.6 0"/>
<feBlend mode="normal" in2="BackgroundImageFix" result="effect1_dropShadow_606_1792"/>
<feBlend mode="normal" in="SourceGraphic" in2="effect1_dropShadow_606_1792" result="shape"/>
</filter>
</defs>
</svg>
