<svg width="60" height="60" viewBox="0 0 60 60" fill="none" xmlns="http://www.w3.org/2000/svg">
<g filter="url(#filter0_d_288_1182)">
<path d="M19.9759 24.1667L22.8199 27.0107L22.5026 27.3333L22.2186 27.58L20.9799 28.656L21.7932 30.0813C21.8412 30.1653 22.9932 32.1693 25.2226 34.436C26.6323 35.8584 28.1977 37.1174 29.8892 38.1893L31.1972 38.9893L32.3052 37.9347L33.0399 37.236L35.8852 40.084L35.3986 40.56L35.2839 40.6507C35.0312 40.8457 34.7519 41.0038 34.4546 41.12C34.1753 41.2273 33.8837 41.2989 33.5866 41.3333C33.5652 41.3333 33.5039 41.3333 33.4066 41.3333C32.9772 41.3333 31.7986 41.2613 30.1386 40.5987C28.0199 39.7533 25.8986 38.276 23.8332 36.2107C21.7332 34.108 20.3212 32.3107 19.5252 30.7173C18.8012 29.2707 18.5452 27.9267 18.7252 26.4893V26.4707C18.7613 26.1727 18.8338 25.8803 18.9412 25.6C19.0591 25.3001 19.2184 25.0183 19.4146 24.7627L19.5199 24.6293L19.9759 24.1693M19.9999 22.048C19.7666 22.0486 19.5357 22.0952 19.3204 22.1851C19.1051 22.275 18.9097 22.4065 18.7452 22.572L17.8119 23.5053L17.8359 23.5307C17.5185 23.9414 17.2621 24.3959 17.0746 24.88C16.9033 25.3201 16.789 25.7802 16.7346 26.2493C16.2986 29.856 17.9466 33.152 22.4186 37.6253C27.6906 42.896 32.0906 43.3333 33.4066 43.3333C33.6332 43.3333 33.7692 43.32 33.8066 43.3173C34.2767 43.261 34.7378 43.145 35.1786 42.972C35.6612 42.7858 36.1137 42.5293 36.5212 42.2107L36.5426 42.2293L37.4852 41.3067C37.8104 40.99 37.9972 40.5576 38.0049 40.1038C38.0127 39.65 37.8407 39.2116 37.5266 38.884L34.2332 35.588C34.0791 35.4354 33.8963 35.3147 33.6954 35.2328C33.4946 35.1509 33.2795 35.1094 33.0626 35.1107C32.83 35.1111 32.5997 35.1575 32.3851 35.2472C32.1704 35.3369 31.9757 35.4681 31.8119 35.6333L30.9279 36.4747C29.3826 35.4876 27.9516 34.3321 26.6612 33.0293C24.5786 30.9213 23.5306 29.084 23.5306 29.084L23.8666 28.792L24.4146 28.244C24.7409 27.9282 24.9289 27.496 24.9374 27.042C24.9459 26.588 24.7742 26.1491 24.4599 25.8213L21.1639 22.5333C21.0117 22.3794 20.8304 22.2573 20.6306 22.174C20.4308 22.0907 20.2164 22.0479 19.9999 22.048ZM39.0039 22.0947C39.0039 21.8294 38.8986 21.5751 38.711 21.3876C38.5235 21.2 38.2691 21.0947 38.0039 21.0947H28.6666C28.4014 21.0947 28.147 21.2 27.9595 21.3876C27.7719 21.5751 27.6666 21.8294 27.6666 22.0947C27.6666 22.3599 27.7719 22.6142 27.9595 22.8018C28.147 22.9893 28.4014 23.0947 28.6666 23.0947H37.9999C38.2651 23.0947 38.5195 22.9893 38.707 22.8018C38.8946 22.6142 38.9999 22.3599 38.9999 22.0947H39.0039ZM39.0039 27.224C39.0039 26.9588 38.8986 26.7044 38.711 26.5169C38.5235 26.3294 38.2691 26.224 38.0039 26.224H28.6666C28.4014 26.224 28.147 26.3294 27.9595 26.5169C27.7719 26.7044 27.6666 26.9588 27.6666 27.224C27.6666 27.4892 27.7719 27.7436 27.9595 27.9311C28.147 28.1186 28.4014 28.224 28.6666 28.224H37.9999C38.2651 28.224 38.5195 28.1186 38.707 27.9311C38.8946 27.7436 38.9999 27.4892 38.9999 27.224H39.0039ZM39.0039 32.3533C39.0039 32.0881 38.8986 31.8338 38.711 31.6462C38.5235 31.4587 38.2691 31.3533 38.0039 31.3533H30.3239C30.0587 31.3533 29.8043 31.4587 29.6168 31.6462C29.4293 31.8338 29.3239 32.0881 29.3239 32.3533C29.3239 32.6186 29.4293 32.8729 29.6168 33.0604C29.8043 33.248 30.0587 33.3533 30.3239 33.3533H37.9999C38.2651 33.3533 38.5195 33.248 38.707 33.0604C38.8946 32.8729 38.9999 32.6186 38.9999 32.3533H39.0039ZM41.3332 16.6667H25.3332C24.8028 16.6667 24.2941 16.8774 23.919 17.2525C23.544 17.6275 23.3332 18.1362 23.3332 18.6667V22.1333C23.3331 22.3869 23.4295 22.631 23.6028 22.816C23.7762 23.001 24.0135 23.1131 24.2666 23.1293H24.2879C24.4216 23.1377 24.5557 23.1186 24.6818 23.0734C24.8079 23.0281 24.9234 22.9575 25.0213 22.866C25.1192 22.7745 25.1973 22.664 25.251 22.5412C25.3046 22.4184 25.3326 22.286 25.3332 22.152V18.6667H41.3332V41.3333H39.6812C39.4206 41.3333 39.1705 41.4363 38.9854 41.6199C38.8004 41.8034 38.6954 42.0527 38.6932 42.3133V42.3387C38.6924 42.469 38.7173 42.5982 38.7665 42.7188C38.8158 42.8394 38.8884 42.9492 38.9803 43.0416C39.0721 43.1341 39.1813 43.2074 39.3016 43.2575C39.4219 43.3076 39.5509 43.3333 39.6812 43.3333H41.3332C41.8637 43.3333 42.3724 43.1226 42.7475 42.7475C43.1225 42.3725 43.3332 41.8638 43.3332 41.3333V18.6667C43.3332 18.1362 43.1225 17.6275 42.7475 17.2525C42.3724 16.8774 41.8637 16.6667 41.3332 16.6667Z" fill="#00FFF0"/>
</g>
<defs>
<filter id="filter0_d_288_1182" x="0.666992" y="0.666666" width="58.6663" height="58.6667" filterUnits="userSpaceOnUse" color-interpolation-filters="sRGB">
<feFlood flood-opacity="0" result="BackgroundImageFix"/>
<feColorMatrix in="SourceAlpha" type="matrix" values="0 0 0 0 0 0 0 0 0 0 0 0 0 0 0 0 0 0 127 0" result="hardAlpha"/>
<feOffset/>
<feGaussianBlur stdDeviation="8"/>
<feComposite in2="hardAlpha" operator="out"/>
<feColorMatrix type="matrix" values="0 0 0 0 0 0 0 0 0 1 0 0 0 0 0.941176 0 0 0 0.6 0"/>
<feBlend mode="normal" in2="BackgroundImageFix" result="effect1_dropShadow_288_1182"/>
<feBlend mode="normal" in="SourceGraphic" in2="effect1_dropShadow_288_1182" result="shape"/>
</filter>
</defs>
</svg>
