<svg width="54" height="60" viewBox="0 0 54 60" fill="none" xmlns="http://www.w3.org/2000/svg">
<g filter="url(#filter0_d_329_1658)">
<path d="M27.0344 18.6715C27.9602 18.6715 28.8652 18.946 29.6349 19.4603C30.4047 19.9746 31.0046 20.7057 31.3589 21.561C31.7132 22.4163 31.8059 23.3574 31.6253 24.2654C31.4447 25.1734 30.9989 26.0074 30.3442 26.6621C29.6896 27.3167 28.8556 27.7625 27.9476 27.9431C27.0396 28.1237 26.0985 28.031 25.2432 27.6767C24.3879 27.3224 23.6568 26.7225 23.1425 25.9527C22.6282 25.183 22.3536 24.278 22.3536 23.3522C22.3553 22.1113 22.849 20.9217 23.7264 20.0443C24.6039 19.1668 25.7935 18.6731 27.0344 18.6715ZM27.0344 16.6667C25.7122 16.6667 24.4196 17.0588 23.3202 17.7935C22.2207 18.5281 21.3638 19.5722 20.8578 20.7938C20.3518 22.0154 20.2194 23.3597 20.4774 24.6565C20.7354 25.9534 21.3721 27.1446 22.3071 28.0796C23.2421 29.0146 24.4333 29.6513 25.7302 29.9093C27.027 30.1672 28.3712 30.0348 29.5929 29.5288C30.8145 29.0228 31.8586 28.1659 32.5932 27.0665C33.3278 25.9671 33.7199 24.6745 33.7199 23.3522C33.7199 21.5791 33.0156 19.8787 31.7618 18.6249C30.508 17.3711 28.8075 16.6667 27.0344 16.6667ZM27.0344 31.9703C31.8125 31.9703 35.7027 35.2926 35.7246 39.3836C35.618 39.5718 34.978 40.1271 33.2148 40.6103C31.194 41.1137 29.1168 41.3552 27.0344 41.3287C24.9499 41.3557 22.8706 41.1143 20.8478 40.6103C19.0909 40.1271 18.4509 39.5718 18.338 39.3836C18.3599 35.3052 22.2501 31.9703 27.0282 31.9703M27.0282 29.9624C21.1207 29.9624 16.3333 34.1946 16.3333 39.4181C16.3333 42.0283 21.6666 43.3334 27.0282 43.3334C32.3897 43.3334 37.7231 42.0283 37.7231 39.4181C37.7231 34.1946 32.9356 29.9624 27.0282 29.9624Z" fill="#00FFF0"/>
</g>
<defs>
<filter id="filter0_d_329_1658" x="0.333252" y="0.666748" width="53.3899" height="58.6666" filterUnits="userSpaceOnUse" color-interpolation-filters="sRGB">
<feFlood flood-opacity="0" result="BackgroundImageFix"/>
<feColorMatrix in="SourceAlpha" type="matrix" values="0 0 0 0 0 0 0 0 0 0 0 0 0 0 0 0 0 0 127 0" result="hardAlpha"/>
<feOffset/>
<feGaussianBlur stdDeviation="8"/>
<feComposite in2="hardAlpha" operator="out"/>
<feColorMatrix type="matrix" values="0 0 0 0 0 0 0 0 0 1 0 0 0 0 0.941176 0 0 0 0.6 0"/>
<feBlend mode="normal" in2="BackgroundImageFix" result="effect1_dropShadow_329_1658"/>
<feBlend mode="normal" in="SourceGraphic" in2="effect1_dropShadow_329_1658" result="shape"/>
</filter>
</defs>
</svg>
