<svg width="60" height="57" viewBox="0 0 60 57" fill="none" xmlns="http://www.w3.org/2000/svg">
<g filter="url(#filter0_d_692_1113)">
<path d="M42.2836 40.6606C41.8521 40.6606 41.4612 40.4044 41.2994 40C39.6681 35.915 36.9583 33.5018 33.2509 32.8278C31.1477 32.4503 29.2873 32.7199 28.3166 32.9356L28.2627 38.6249C28.2627 39.0563 27.993 39.4472 27.5886 39.5955C27.1841 39.7573 26.7258 39.636 26.4292 39.3124L16.9381 28.8911C16.5741 28.4867 16.5741 27.853 16.9516 27.4621L26.8336 17.0003C27.1437 16.6768 27.5886 16.5824 27.993 16.7442C28.3975 16.9059 28.6536 17.2834 28.6536 17.7283V23.4985C32.6981 23.5389 36.0011 24.7523 38.4817 27.0846C42.6745 31.0482 43.2677 37.1419 43.3216 39.5821C43.3351 40.0944 42.9846 40.5392 42.4723 40.6336C42.4184 40.6606 42.351 40.6606 42.2836 40.6606ZM19.0412 28.1901L26.2539 36.1308L26.2943 32.1672C26.2943 31.7088 26.6044 31.3043 27.0358 31.1695C27.3594 31.0751 30.2579 30.2123 33.6149 30.8325C35.7584 31.2234 38.4278 32.275 40.6523 34.9309C40.0861 32.7603 39.0345 30.3741 37.1066 28.5541C34.8282 26.4105 31.6735 25.3859 27.7369 25.5342C27.4538 25.5477 27.1706 25.4398 26.9684 25.2376C26.7527 25.0354 26.6449 24.7523 26.6449 24.4691V20.155L19.0412 28.1901Z" fill="#00FFF0"/>
</g>
<defs>
<filter id="filter0_d_692_1113" x="0.666748" y="0.666664" width="58.6553" height="55.9939" filterUnits="userSpaceOnUse" color-interpolation-filters="sRGB">
<feFlood flood-opacity="0" result="BackgroundImageFix"/>
<feColorMatrix in="SourceAlpha" type="matrix" values="0 0 0 0 0 0 0 0 0 0 0 0 0 0 0 0 0 0 127 0" result="hardAlpha"/>
<feOffset/>
<feGaussianBlur stdDeviation="8"/>
<feComposite in2="hardAlpha" operator="out"/>
<feColorMatrix type="matrix" values="0 0 0 0 0 0 0 0 0 1 0 0 0 0 0.941176 0 0 0 0.6 0"/>
<feBlend mode="normal" in2="BackgroundImageFix" result="effect1_dropShadow_692_1113"/>
<feBlend mode="normal" in="SourceGraphic" in2="effect1_dropShadow_692_1113" result="shape"/>
</filter>
</defs>
</svg>
