<svg width="60" height="60" viewBox="0 0 60 60" fill="none" xmlns="http://www.w3.org/2000/svg">
<g filter="url(#filter0_d_692_1105)">
<path d="M38.0169 32.6247C37.135 32.6245 36.267 32.8436 35.491 33.2625C34.7149 33.6813 34.0553 34.2866 33.5715 35.0239L27.1657 31.3617C27.4468 30.4477 27.4468 29.4704 27.1657 28.5565L33.5715 24.9067C34.2917 26.0056 35.3918 26.8002 36.6613 27.1387C37.9307 27.4771 39.2804 27.3355 40.452 26.741C41.6236 26.1465 42.5348 25.1408 43.0113 23.9164C43.4877 22.692 43.496 21.335 43.0344 20.1049C42.5728 18.8749 41.6738 17.8582 40.5095 17.2496C39.3451 16.6409 37.9973 16.483 36.7238 16.8061C35.4503 17.1291 34.3407 17.9104 33.6073 19.0005C32.8738 20.0905 32.5682 21.4127 32.7487 22.7141L26.0475 26.522C25.3433 25.6894 24.4002 25.0932 23.346 24.8141C22.2918 24.5349 21.1773 24.5863 20.1533 24.9613C19.1292 25.3364 18.2451 26.0169 17.6205 26.9108C16.9959 27.8047 16.6609 28.8689 16.6609 29.9595C16.6609 31.05 16.9959 32.1142 17.6205 33.0082C18.2451 33.9021 19.1292 34.5826 20.1533 34.9576C21.1773 35.3326 22.2918 35.384 23.346 35.1049C24.4002 34.8258 25.3433 34.2296 26.0475 33.3969L32.7487 37.215C32.6003 38.288 32.7831 39.3806 33.2725 40.3469C33.7619 41.3131 34.5346 42.1069 35.4874 42.6222C36.4401 43.1374 37.5274 43.3494 38.604 43.23C39.6805 43.1105 40.6949 42.6653 41.5115 41.9537C42.3281 41.2422 42.9081 40.2983 43.1737 39.2482C43.4394 38.1982 43.3782 37.0921 42.9982 36.0778C42.6183 35.0635 41.9377 34.1893 41.0475 33.5723C40.1574 32.9552 39.1 32.6246 38.0169 32.6247ZM38.0169 19.0736C38.5928 19.0741 39.1557 19.2453 39.6343 19.5656C40.113 19.8859 40.486 20.3409 40.7061 20.8731C40.9262 21.4053 40.9836 21.9908 40.871 22.5557C40.7584 23.1205 40.4809 23.6393 40.0736 24.0464C39.6662 24.4535 39.1473 24.7308 38.5824 24.8431C38.0175 24.9553 37.432 24.8976 36.8999 24.6772C36.3678 24.4568 35.913 24.0836 35.593 23.6048C35.2729 23.126 35.102 22.563 35.1019 21.9871C35.1018 21.6043 35.1771 21.2253 35.3236 20.8717C35.4701 20.518 35.6848 20.1967 35.9555 19.9262C36.2263 19.6556 36.5477 19.441 36.9014 19.2947C37.2551 19.1485 37.6341 19.0733 38.0169 19.0736ZM22.0557 32.878C21.4796 32.878 20.9165 32.7072 20.4375 32.3871C19.9585 32.0671 19.5852 31.6122 19.3647 31.08C19.1443 30.5477 19.0866 29.9621 19.199 29.3971C19.3114 28.8321 19.5888 28.3131 19.9961 27.9058C20.4035 27.4984 20.9225 27.221 21.4875 27.1086C22.0525 26.9962 22.6381 27.0539 23.1703 27.2744C23.7025 27.4948 24.1574 27.8682 24.4775 28.3471C24.7975 28.8261 24.9683 29.3893 24.9683 29.9653C24.9683 30.7378 24.6615 31.4787 24.1152 32.0249C23.569 32.5711 22.8282 32.878 22.0557 32.878ZM38.0169 40.8562C37.4408 40.8562 36.8776 40.6854 36.3986 40.3653C35.9196 40.0452 35.5463 39.5903 35.3259 39.058C35.1054 38.5258 35.0478 37.9401 35.1602 37.3751C35.2727 36.81 35.5502 36.2911 35.9576 35.8837C36.365 35.4764 36.8841 35.1991 37.4491 35.0868C38.0142 34.9745 38.5998 35.0323 39.132 35.2529C39.6643 35.4734 40.1191 35.8469 40.439 36.326C40.759 36.8051 40.9297 37.3683 40.9295 37.9444C40.9295 38.3268 40.8542 38.7055 40.7078 39.0589C40.5614 39.4122 40.3469 39.7333 40.0764 40.0037C39.8059 40.2741 39.4848 40.4885 39.1314 40.6348C38.7781 40.7811 38.3993 40.8563 38.0169 40.8562Z" fill="#00FFF0"/>
</g>
<defs>
<filter id="filter0_d_692_1105" x="0.660889" y="0.642174" width="58.7139" height="58.6203" filterUnits="userSpaceOnUse" color-interpolation-filters="sRGB">
<feFlood flood-opacity="0" result="BackgroundImageFix"/>
<feColorMatrix in="SourceAlpha" type="matrix" values="0 0 0 0 0 0 0 0 0 0 0 0 0 0 0 0 0 0 127 0" result="hardAlpha"/>
<feOffset/>
<feGaussianBlur stdDeviation="8"/>
<feComposite in2="hardAlpha" operator="out"/>
<feColorMatrix type="matrix" values="0 0 0 0 0 0 0 0 0 1 0 0 0 0 0.941176 0 0 0 0.6 0"/>
<feBlend mode="normal" in2="BackgroundImageFix" result="effect1_dropShadow_692_1105"/>
<feBlend mode="normal" in="SourceGraphic" in2="effect1_dropShadow_692_1105" result="shape"/>
</filter>
</defs>
</svg>
