<?xml version="1.0" encoding="UTF-8"?>
<svg id="Layer_2" data-name="Layer 2" xmlns="http://www.w3.org/2000/svg" viewBox="0 0 505 516.67">
  <g id="Layer_1-2" data-name="Layer 1">
    <path d="M200.24,0c-13.81,0-25,11.19-25,25s11.19,25,25,25V0Zm109.1,50c13.81,0,25-11.19,25-25S323.15,0,309.34,0V50Zm9.75,345.97c-13.81,0-25,11.19-25,25s11.19,25,25,25v-50Zm77.48,25v25h.33s-.33-25-.33-25Zm45.66-27.3l21.73,12.36c.52-.92,.99-1.87,1.39-2.85l-23.12-9.51Zm-7.47-63.1l-23.87,7.42c.81,2.61,2.05,5.07,3.65,7.29l20.22-14.7Zm-19.5-99.07l24.9-2.19c-.06-.69-.15-1.37-.27-2.05l-24.64,4.24Zm-26.97-110.55c-9.27-10.23-25.08-11.01-35.31-1.74-10.23,9.27-11.01,25.08-1.74,35.31l37.05-33.57Zm-69.49,325.12c13.81,0,25-11.19,25-25s-11.19-25-25-25v50Zm-128.37-50c-13.81,0-25,11.19-25,25s11.19,25,25,25v-50Zm153.7,25c0-13.81-11.19-25-25-25s-25,11.19-25,25h50Zm-128.7,0c0-13.81-11.19-25-25-25s-25,11.19-25,25h50Zm-25,25c13.81,0,25-11.19,25-25s-11.19-25-25-25v50Zm-77.48-25l-.06,25h.06v-25Zm-8.04-26.38c-13.04-4.53-27.29,2.36-31.82,15.4-4.53,13.04,2.36,27.29,15.4,31.82l16.42-47.23ZM497.9,42.45c9.64-9.89,9.44-25.71-.45-35.35-9.89-9.64-25.71-9.44-35.35,.45l35.8,34.91Zm-145.72,77.83c-9.64,9.89-9.44,25.71,.45,35.35,9.89,9.64,25.71,9.44,35.35-.45l-35.8-34.91ZM7.1,474.21c-9.64,9.89-9.44,25.71,.45,35.35,9.89,9.64,25.71,9.44,35.35-.45L7.1,474.21Zm107.3-38.43c9.64-9.89,9.44-25.71-.45-35.35-9.89-9.64-25.71-9.44-35.35,.45l35.8,34.91ZM387.89,155.29c9.64-9.89,9.44-25.71-.45-35.35-9.89-9.64-25.71-9.44-35.35,.45l35.8,34.91ZM78.6,400.88c-9.64,9.89-9.44,25.71,.45,35.35,9.89,9.64,25.71,9.44,35.35-.45l-35.8-34.91ZM304.61,120.63c12.66,5.5,27.39-.3,32.89-12.97,5.5-12.66-.3-27.39-12.97-32.89l-19.92,45.86Zm-49.84-35.36l-.02-25c-.24,0-.49,0-.73,.01l.75,24.99ZM94.09,231.67l-24.74-3.58c-.07,.46-.12,.93-.16,1.39l24.9,2.19Zm-19.5,99.07l21.83,12.19c.85-1.51,1.53-3.12,2.05-4.77l-23.87-7.42Zm-34.27,17.2c-3.98,13.22,3.51,27.16,16.73,31.14,13.22,3.98,27.16-3.51,31.14-16.74l-47.88-14.41ZM200.24,50h109.1V0h-109.1V50Zm118.85,395.97h77.48v-50h-77.48v50Zm77.81,0c27.92-.37,53.29-15.72,67.07-39.94l-43.46-24.72c-5.21,9.16-14.5,14.53-24.26,14.66l.66,49.99Zm68.46-42.79c11.87-28.88,7.98-62.06-10.38-87.31l-40.44,29.41c8.09,11.12,9.89,25.96,4.57,38.89l46.24,19.01Zm-6.72-80.02c-9.47-30.49-15.66-61.96-18.47-93.84l-49.81,4.38c3.12,35.42,10,70.39,20.53,104.29l47.75-14.83Zm-18.74-95.89c-6.84-39.72-24.73-76.64-51.61-106.31l-37.05,33.57c20.43,22.55,34.14,50.75,39.39,81.22l49.27-8.49Zm-121.1,168.81H190.42v50h128.37v-50Zm-24.67,25c0,14.95-7.78,28.46-19.91,35.65l25.47,43.02c27.69-16.4,44.44-46.46,44.44-78.67h-50Zm-19.91,35.65c-12.06,7.14-26.82,7.14-38.88,0l-25.47,43.02c27.76,16.44,62.06,16.44,89.82,0l-25.47-43.02Zm-38.88,0c-12.13-7.18-19.91-20.69-19.91-35.65h-50c0,32.21,16.75,62.27,44.44,78.67l25.47-43.02Zm-44.91-60.65H112.94v50h77.48v-50Zm-77.42,0c-2.74,0-5.48-.47-8.1-1.38l-16.42,47.23c7.85,2.73,16.09,4.13,24.4,4.15l.11-50ZM462.1,7.55l-109.92,112.73,35.8,34.91,109.92-112.73L462.1,7.55ZM42.9,509.12l71.5-73.33-35.8-34.91L7.1,474.21l35.8,34.91ZM352.09,120.38L78.6,400.88l35.8,34.91L387.89,155.29l-35.8-34.91Zm-27.55-45.61c-22.05-9.58-45.79-14.52-69.78-14.5l.04,50c17.1-.01,34.04,3.51,49.82,10.36l19.92-45.86Zm-70.51-14.49c-93.65,2.82-171.08,73.97-184.67,167.81l49.48,7.17c10.24-70.71,68.21-122.93,136.69-124.99l-1.5-49.98ZM69.19,229.48c-2.81,31.88-9,63.35-18.47,93.84l47.75,14.83c10.53-33.9,17.41-68.87,20.53-104.29l-49.81-4.38Zm-16.42,89.07c-5.2,9.3-9.37,19.16-12.45,29.39l47.88,14.41c2.04-6.77,4.8-13.28,8.22-19.41l-43.65-24.38Z"/>
  </g>
</svg>