<svg width="56" height="56" viewBox="0 0 56 56" fill="none" xmlns="http://www.w3.org/2000/svg">
<g filter="url(#filter0_d_329_1674)">
<path d="M38.92 19.6H32.2V17.8C32.2 17.3226 32.0104 16.8648 31.6728 16.5272C31.3352 16.1896 30.8774 16 30.4 16H25.6C25.1226 16 24.6648 16.1896 24.3272 16.5272C23.9896 16.8648 23.8 17.3226 23.8 17.8V19.6H17.08C16.7936 19.6 16.5189 19.7138 16.3163 19.9163C16.1138 20.1189 16 20.3936 16 20.68C16 20.9664 16.1138 21.2411 16.3163 21.4437C16.5189 21.6462 16.7936 21.76 17.08 21.76H18.6544L20.8 40H35.2L37.3456 21.76H38.92C39.2064 21.76 39.4811 21.6462 39.6837 21.4437C39.8862 21.2411 40 20.9664 40 20.68C40 20.3936 39.8862 20.1189 39.6837 19.9163C39.4811 19.7138 39.2064 19.6 38.92 19.6ZM25.96 18.16H30.04V19.6H25.96V18.16ZM33.28 37.84H22.72L20.8288 21.76H35.1712L33.28 37.84ZM25.6 34C25.3613 34 25.1324 33.9052 24.9636 33.7364C24.7948 33.5676 24.7 33.3387 24.7 33.1V25.3C24.7 25.0613 24.7948 24.8324 24.9636 24.6636C25.1324 24.4948 25.3613 24.4 25.6 24.4C25.8387 24.4 26.0676 24.4948 26.2364 24.6636C26.4052 24.8324 26.5 25.0613 26.5 25.3V33.1C26.5 33.3387 26.4052 33.5676 26.2364 33.7364C26.0676 33.9052 25.8387 34 25.6 34ZM30.4 34C30.1613 34 29.9324 33.9052 29.7636 33.7364C29.5948 33.5676 29.5 33.3387 29.5 33.1V25.3C29.5 25.0613 29.5948 24.8324 29.7636 24.6636C29.9324 24.4948 30.1613 24.4 30.4 24.4C30.6387 24.4 30.8676 24.4948 31.0364 24.6636C31.2052 24.8324 31.3 25.0613 31.3 25.3V33.1C31.3 33.3387 31.2052 33.5676 31.0364 33.7364C30.8676 33.9052 30.6387 34 30.4 34Z" fill="#00FFF0"/>
</g>
<defs>
<filter id="filter0_d_329_1674" x="0" y="0" width="56" height="56" filterUnits="userSpaceOnUse" color-interpolation-filters="sRGB">
<feFlood flood-opacity="0" result="BackgroundImageFix"/>
<feColorMatrix in="SourceAlpha" type="matrix" values="0 0 0 0 0 0 0 0 0 0 0 0 0 0 0 0 0 0 127 0" result="hardAlpha"/>
<feOffset/>
<feGaussianBlur stdDeviation="8"/>
<feComposite in2="hardAlpha" operator="out"/>
<feColorMatrix type="matrix" values="0 0 0 0 0 0 0 0 0 1 0 0 0 0 0.941176 0 0 0 0.6 0"/>
<feBlend mode="normal" in2="BackgroundImageFix" result="effect1_dropShadow_329_1674"/>
<feBlend mode="normal" in="SourceGraphic" in2="effect1_dropShadow_329_1674" result="shape"/>
</filter>
</defs>
</svg>
