<svg width="54" height="60" viewBox="0 0 54 60" fill="none" xmlns="http://www.w3.org/2000/svg">
<g filter="url(#filter0_d_329_1709)">
<path d="M32.6653 37.2L37.0906 32.7734C37.1861 32.6811 37.2622 32.5707 37.3145 32.4487C37.3669 32.3266 37.3944 32.1954 37.3955 32.0626C37.3966 31.9298 37.3712 31.7982 37.3209 31.6753C37.2706 31.5524 37.1963 31.4408 37.1023 31.347C37.0084 31.2531 36.8967 31.1789 36.7738 31.1287C36.6509 31.0785 36.5192 31.0532 36.3864 31.0544C36.2536 31.0557 36.1224 31.0833 36.0004 31.1358C35.8784 31.1882 35.7681 31.2645 35.6759 31.36L31.2506 35.7854L26.8239 31.36C26.6354 31.1778 26.3829 31.0769 26.1207 31.079C25.8585 31.0812 25.6076 31.1862 25.4221 31.3715C25.2366 31.5569 25.1313 31.8076 25.1289 32.0698C25.1265 32.332 25.2272 32.5847 25.4093 32.7734L29.8359 37.2L25.4093 41.6267C25.3138 41.719 25.2377 41.8294 25.1853 41.9514C25.133 42.0734 25.1054 42.2047 25.1044 42.3374C25.1033 42.4702 25.1286 42.6019 25.179 42.7247C25.2293 42.8476 25.3036 42.9592 25.3975 43.0531C25.4915 43.1469 25.6032 43.2211 25.7261 43.2714C25.849 43.3216 25.9807 43.3468 26.1135 43.3456C26.2463 43.3444 26.3775 43.3167 26.4994 43.2643C26.6214 43.2118 26.7317 43.1356 26.8239 43.04L31.2506 38.6147L35.6759 43.04C35.7681 43.1356 35.8784 43.2118 36.0004 43.2643C36.1224 43.3167 36.2536 43.3444 36.3864 43.3456C36.5192 43.3468 36.6509 43.3216 36.7738 43.2714C36.8967 43.2211 37.0084 43.1469 37.1023 43.0531C37.1963 42.9592 37.2706 42.8476 37.3209 42.7247C37.3712 42.6019 37.3966 42.4702 37.3955 42.3374C37.3944 42.2047 37.3669 42.0734 37.3145 41.9514C37.2622 41.8294 37.1861 41.719 37.0906 41.6267L32.6653 37.2ZM32.9146 31.936L32.7253 30.4374C32.5636 29.2191 31.9645 28.1011 31.0398 27.2916C30.115 26.4821 28.9276 26.0364 27.6986 26.0374H22.1346C20.9056 26.0364 19.7182 26.4821 18.7934 27.2916C17.8687 28.1011 17.2696 29.2191 17.1079 30.4374L16.3533 36.3734C16.3091 36.7357 16.3391 37.1033 16.4413 37.4537C16.5435 37.8042 16.7159 38.1302 16.9479 38.412C17.2559 38.76 17.9053 39.3454 18.7893 39.3454H25.9013C26.1665 39.3454 26.4208 39.24 26.6084 39.0525C26.7959 38.8649 26.9013 38.6106 26.9013 38.3454C26.9013 38.0801 26.7959 37.8258 26.6084 37.6382C26.4208 37.4507 26.1665 37.3454 25.9013 37.3454H18.7946C18.6578 37.2933 18.5379 37.2048 18.4479 37.0894C18.361 36.9506 18.3221 36.7871 18.3373 36.624L19.0919 30.6907C19.1908 29.9541 19.5538 29.2784 20.1135 28.7894C20.6732 28.3004 21.3914 28.0312 22.1346 28.032H27.6959C28.4392 28.0312 29.1574 28.3004 29.717 28.7894C30.2767 29.2784 30.6397 29.9541 30.7386 30.6907L30.9306 32.1894C30.9642 32.4524 31.1009 32.6914 31.3107 32.8537C31.5205 33.016 31.7862 33.0883 32.0493 33.0547C32.3124 33.0211 32.5513 32.8844 32.7136 32.6746C32.8759 32.4648 32.9482 32.1991 32.9146 31.936ZM24.9159 16.6667C24.059 16.6664 23.2213 16.9203 22.5087 17.3962C21.7961 17.8721 21.2407 18.5487 20.9126 19.3403C20.5846 20.1319 20.4987 21.003 20.6658 21.8435C20.8329 22.6839 21.2455 23.456 21.8514 24.0619C22.4573 24.6678 23.2293 25.0804 24.0698 25.2475C24.9102 25.4146 25.7814 25.3287 26.573 25.0007C27.3646 24.6726 28.0412 24.1172 28.5171 23.4046C28.993 22.692 29.2469 21.8543 29.2466 20.9974C29.2466 19.8488 28.7903 18.7473 27.9782 17.9351C27.166 17.123 26.0645 16.6667 24.9159 16.6667ZM24.9159 23.3334C24.4546 23.3336 24.0036 23.1971 23.62 22.941C23.2363 22.6849 22.9372 22.3208 22.7605 21.8947C22.5838 21.4686 22.5374 20.9997 22.6272 20.5472C22.7171 20.0948 22.9391 19.6791 23.2652 19.3529C23.5912 19.0266 24.0068 18.8043 24.4592 18.7143C24.9116 18.6242 25.3805 18.6703 25.8067 18.8467C26.2329 19.0232 26.5972 19.3221 26.8535 19.7056C27.1098 20.0892 27.2466 20.5401 27.2466 21.0014C27.2459 21.6194 27.0002 22.2119 26.5633 22.6491C26.1264 23.0862 25.534 23.3323 24.9159 23.3334Z" fill="#00FFF0"/>
</g>
<defs>
<filter id="filter0_d_329_1709" x="0.333496" y="0.666687" width="53.062" height="58.679" filterUnits="userSpaceOnUse" color-interpolation-filters="sRGB">
<feFlood flood-opacity="0" result="BackgroundImageFix"/>
<feColorMatrix in="SourceAlpha" type="matrix" values="0 0 0 0 0 0 0 0 0 0 0 0 0 0 0 0 0 0 127 0" result="hardAlpha"/>
<feOffset/>
<feGaussianBlur stdDeviation="8"/>
<feComposite in2="hardAlpha" operator="out"/>
<feColorMatrix type="matrix" values="0 0 0 0 0 0 0 0 0 1 0 0 0 0 0.941176 0 0 0 0.6 0"/>
<feBlend mode="normal" in2="BackgroundImageFix" result="effect1_dropShadow_329_1709"/>
<feBlend mode="normal" in="SourceGraphic" in2="effect1_dropShadow_329_1709" result="shape"/>
</filter>
</defs>
</svg>
