<svg width="48" height="48" viewBox="0 0 48 48" fill="none" xmlns="http://www.w3.org/2000/svg">
<path d="M46.014 33.844C45.97 32.556 46.632 28.71 47.164 25.622C47.592 23.136 47.964 20.988 47.998 20.094C48.03 19.306 47.68 18.672 47.038 18.354C45.226 17.46 41.874 19.39 39.552 21.316C37.562 22.9725 35.8119 24.8976 34.352 27.036C33.3522 25.8176 32.2718 24.6677 31.118 23.594C31.23 22.046 31.826 20.678 32.356 19.46C32.97 18.06 33.502 16.836 32.956 15.792C32.486 14.902 31.456 14.61 30.722 14.47C26.6 13.67 20.48 18.602 19.1 19.77C14.4 20.268 8.018 22.624 0.588 31.602C0.371126 31.8631 0.208595 32.1648 0.109949 32.4896C0.0113037 32.8143 -0.0214683 33.1555 0.0135574 33.4931C0.048583 33.8307 0.1507 34.1579 0.313914 34.4554C0.477128 34.753 0.698149 35.015 0.964 35.226C3.526 37.258 8.432 40.826 12.5 41.826C14.5483 42.3013 16.6453 42.5349 18.748 42.522C19.164 42.522 19.592 42.522 20.022 42.494C20.7 43.256 23.082 45.724 26.144 46.526C27.0504 46.7519 27.9819 46.8621 28.916 46.854C31.254 46.854 33.634 46.24 34.668 45.222C34.9254 44.995 35.1169 44.7028 35.2225 44.3763C35.3281 44.0497 35.3438 43.7007 35.268 43.366C35.012 42.324 34.362 41.594 33.732 40.886C33.152 40.236 32.644 39.656 32.436 38.872C33.679 38.0577 34.8099 37.0841 35.8 35.976C37.134 37.82 39.6 39.504 40.746 40.224C41.688 40.824 44.604 42.564 46.346 42.564C46.5647 42.568 46.7822 42.532 46.988 42.458C48.716 41.788 47.838 39.446 46.988 37.182C46.522 35.942 46.04 34.66 46.014 33.844ZM30.4 16.122C31.248 16.284 31.426 16.51 31.46 16.574C31.632 16.9 31.196 17.9 30.81 18.774C30.376 19.774 29.864 20.948 29.596 22.288C27.748 20.85 25.864 19.888 24.108 19.762H24.08C23.452 19.718 22.748 19.67 21.976 19.65C24.456 17.862 28.12 15.686 30.4 16.122ZM2 33.9C1.91282 33.829 1.84068 33.7412 1.7878 33.642C1.73491 33.5428 1.70235 33.434 1.692 33.322C1.67995 33.2064 1.69146 33.0895 1.72584 32.9785C1.76021 32.8675 1.81674 32.7646 1.892 32.676C5.622 28.172 9.054 25.426 12.112 23.768C13.0541 25.1559 13.7885 26.6739 14.292 28.274C15.548 32.246 15.348 36.314 13.692 40.374C13.416 40.32 13.152 40.26 12.904 40.198C9 39.224 3.988 35.472 2.012 33.904L2 33.9ZM32.452 41.994C32.99 42.594 33.452 43.118 33.61 43.754C33.61 43.778 33.634 43.848 33.472 44.006C32.532 44.932 29.01 45.522 26.56 44.88C24.774 44.414 23.208 43.218 22.22 42.314C23.2004 42.2059 24.1744 42.0464 25.138 41.836C27.1539 41.4067 29.1014 40.7028 30.926 39.744C31.294 40.678 31.906 41.37 32.464 41.998L32.452 41.994ZM15.4 40.642C17.466 35.256 16.818 30.664 15.864 27.692C15.3372 26.0367 14.5848 24.4619 13.628 23.012C18.046 21.04 21.582 21.288 23.962 21.454H24C27.754 21.718 32.8 27.108 36.256 32.47C31.758 40.234 21.574 41.368 15.4 40.642ZM46.294 40.888C45.754 40.888 43.99 40.306 41.494 38.712C39.28 37.296 37.574 35.76 36.894 34.586C37.2918 34.0282 37.6539 33.4457 37.978 32.842L38.21 32.41L37.948 31.994C37.216 30.828 36.378 29.616 35.468 28.426C36.8896 26.2424 38.6295 24.2835 40.63 22.614C43.726 20.046 45.974 19.614 46.298 19.864C46.3155 19.9161 46.321 19.9715 46.314 20.026C46.284 20.81 45.914 23.008 45.504 25.336C44.904 28.828 44.282 32.44 44.33 33.9C44.366 34.994 44.896 36.406 45.408 37.774C45.774 38.752 46.372 40.35 46.3 40.888H46.294ZM6.96 18.942C7.76497 18.942 8.55186 18.7033 9.22117 18.2561C9.89048 17.8089 10.4121 17.1732 10.7202 16.4295C11.0282 15.6858 11.1088 14.8675 10.9518 14.078C10.7948 13.2885 10.4071 12.5633 9.83793 11.9941C9.26873 11.4249 8.54352 11.0372 7.75402 10.8802C6.96452 10.7231 6.14617 10.8037 5.40248 11.1118C4.65878 11.4198 4.02314 11.9415 3.57592 12.6108C3.1287 13.2801 2.89 14.067 2.89 14.872C2.89106 15.9511 3.3202 16.9857 4.08325 17.7487C4.84629 18.5118 5.88089 18.9409 6.96 18.942ZM6.96 12.488C7.43151 12.488 7.89243 12.6278 8.28448 12.8898C8.67653 13.1517 8.98209 13.5241 9.16253 13.9597C9.34297 14.3953 9.39018 14.8746 9.29819 15.3371C9.2062 15.7995 8.97915 16.2243 8.64574 16.5577C8.31233 16.8911 7.88755 17.1182 7.4251 17.2102C6.96265 17.3022 6.4833 17.255 6.04768 17.0745C5.61206 16.8941 5.23973 16.5885 4.97778 16.1965C4.71582 15.8044 4.576 15.3435 4.576 14.872C4.57653 14.2399 4.82787 13.6338 5.27484 13.1868C5.72181 12.7399 6.32789 12.4885 6.96 12.488ZM12.346 8.02999C13.0417 8.02999 13.7218 7.82357 14.3002 7.43687C14.8786 7.05018 15.3292 6.50058 15.5951 5.85765C15.861 5.21472 15.9302 4.50736 15.7938 3.8251C15.6575 3.14285 15.3219 2.51637 14.8293 2.02497C14.3368 1.53357 13.7096 1.19933 13.027 1.06457C12.3445 0.929813 11.6373 1.00058 10.9949 1.26793C10.3526 1.53527 9.80404 1.98717 9.41866 2.56643C9.03328 3.14568 8.82842 3.82625 8.83 4.52199C8.83317 5.45278 9.20488 6.34442 9.8638 7.00184C10.5227 7.65926 11.4152 8.02893 12.346 8.02999ZM12.346 2.68599C12.7078 2.68559 13.0615 2.79244 13.3626 2.99301C13.6637 3.19359 13.8986 3.47891 14.0375 3.81291C14.1765 4.14692 14.2134 4.51462 14.1435 4.86957C14.0736 5.22453 13.9001 5.5508 13.6448 5.80716C13.3896 6.06353 13.0641 6.23849 12.7094 6.30994C12.3548 6.38139 11.9869 6.34612 11.6523 6.20859C11.3177 6.07106 11.0314 5.83744 10.8295 5.53725C10.6276 5.23705 10.5192 4.88375 10.518 4.52199C10.5175 4.28141 10.5643 4.04308 10.6559 3.82061C10.7475 3.59814 10.882 3.39588 11.0518 3.2254C11.2215 3.05491 11.4232 2.91952 11.6452 2.82697C11.8673 2.73442 12.1054 2.68651 12.346 2.68599ZM11.446 29.486C11.4452 29.8123 11.3477 30.1311 11.1657 30.402C10.9837 30.6729 10.7255 30.8838 10.4237 31.0079C10.1219 31.1321 9.7901 31.1639 9.47018 31.0995C9.15027 31.0351 8.85665 30.8772 8.62645 30.6459C8.39626 30.4146 8.23982 30.1202 8.17693 29.8C8.11404 29.4797 8.14752 29.1481 8.27314 28.8469C8.39875 28.5457 8.61086 28.2885 8.88264 28.1078C9.15442 27.9272 9.47366 27.8312 9.8 27.832C10.2373 27.833 10.6562 28.0076 10.9648 28.3174C11.2735 28.6271 11.4465 29.0467 11.446 29.484V29.486Z" fill="black"/>
</svg>
