<?xml version="1.0" encoding="utf-8"?>
<!-- Generator: Adobe Illustrator 16.0.0, SVG Export Plug-In . SVG Version: 6.00 Build 0)  -->
<!DOCTYPE svg PUBLIC "-//W3C//DTD SVG 1.1//EN" "http://www.w3.org/Graphics/SVG/1.1/DTD/svg11.dtd">
<svg version="1.1" id="Calque_1" xmlns="http://www.w3.org/2000/svg" xmlns:xlink="http://www.w3.org/1999/xlink" x="0px" y="0px"
	 width="18.668px" height="23.691px" viewBox="0 0 18.668 23.691" enable-background="new 0 0 18.668 23.691" xml:space="preserve">
<g>
	<path fill="none" d="M5.229,17.469c-0.265,0-0.519-0.104-0.707-0.293c-0.188-0.188-0.293-0.438-0.293-0.707
		c0-0.267,0.106-0.52,0.293-0.704c0.187-0.188,0.442-0.296,0.707-0.296h4.334v-0.984h4.666V9.469h-3
		c-0.795,0-1.56-0.313-2.122-0.879C8.544,8.028,8.229,7.265,8.229,6.469v-3h-5c-0.265,0-0.519,0.105-0.707,0.296
		C2.333,3.949,2.229,4.203,2.229,4.469v14c0,0.269,0.106,0.521,0.293,0.707c0.187,0.188,0.442,0.293,0.707,0.293h6.334v-2H5.229z
		 M4.521,7.762c0.187-0.188,0.442-0.296,0.707-0.296h1c0.265,0,0.519,0.105,0.707,0.296c0.188,0.187,0.293,0.438,0.293,0.704
		c0,0.268-0.106,0.521-0.293,0.707c-0.186,0.19-0.441,0.295-0.706,0.295h-1c-0.265,0-0.519-0.104-0.707-0.293
		C4.333,8.989,4.229,8.734,4.229,8.469C4.229,8.204,4.334,7.949,4.521,7.762z M4.521,11.762c0.187-0.188,0.442-0.296,0.707-0.296h6
		c0.266,0,0.519,0.105,0.707,0.296c0.188,0.187,0.293,0.438,0.293,0.704c0,0.269-0.106,0.521-0.293,0.707
		c-0.188,0.188-0.441,0.293-0.707,0.293h-6c-0.265,0-0.519-0.104-0.707-0.293c-0.188-0.188-0.293-0.438-0.293-0.707
		C4.229,12.202,4.334,11.949,4.521,11.762z"/>
	<path fill="none" d="M10.229,6.469c0,0.268,0.105,0.521,0.293,0.707c0.188,0.188,0.44,0.293,0.707,0.293h1.59l-2.59-2.59V6.469z"/>
	<path fill="#FFFFFF" d="M5.229,13.469h6c0.269,0,0.521-0.104,0.707-0.293c0.188-0.188,0.293-0.438,0.293-0.707
		c0-0.267-0.104-0.521-0.293-0.704c-0.188-0.188-0.438-0.296-0.707-0.296h-6c-0.265,0-0.52,0.104-0.707,0.296
		c-0.187,0.188-0.293,0.438-0.293,0.704c0,0.269,0.105,0.521,0.293,0.707C4.709,13.363,4.963,13.469,5.229,13.469z"/>
	<path fill="#FFFFFF" d="M5.229,9.469h1c0.265,0,0.52-0.104,0.707-0.293c0.187-0.188,0.293-0.439,0.293-0.707
		c0-0.266-0.105-0.521-0.293-0.705C6.748,7.574,6.494,7.469,6.229,7.469h-1c-0.265,0-0.52,0.104-0.707,0.296
		C4.334,7.95,4.229,8.203,4.229,8.469c0,0.268,0.105,0.521,0.293,0.707C4.709,9.363,4.963,9.469,5.229,9.469z"/>
	<path fill="#FFFFFF" d="M16.167,8.139V8.049c-0.047-0.104-0.11-0.194-0.188-0.277l-6-6C9.896,1.691,9.8,1.627,9.7,1.578
		c-0.031-0.004-0.061-0.004-0.091,0C9.507,1.52,9.395,1.482,9.279,1.469h-6.05c-0.796,0-1.559,0.315-2.121,0.882
		C0.544,2.91,0.229,3.673,0.229,4.469v14c0,0.798,0.316,1.562,0.879,2.121c0.562,0.563,1.325,0.879,2.121,0.879h6.334v-2H3.229
		c-0.265,0-0.52-0.104-0.707-0.293c-0.187-0.188-0.293-0.438-0.293-0.707v-14c0-0.266,0.105-0.521,0.293-0.704
		c0.188-0.19,0.442-0.296,0.707-0.296h5v3c0,0.799,0.316,1.562,0.879,2.121c0.562,0.563,1.328,0.879,2.123,0.879h3v5.016h2V8.469
		c0,0,0,0,0-0.061C16.219,8.317,16.199,8.227,16.167,8.139z M11.229,7.469c-0.267,0-0.521-0.104-0.707-0.293
		c-0.188-0.188-0.293-0.439-0.293-0.707v-1.59l2.59,2.59H11.229z"/>
	<path fill="#FFFFFF" d="M4.521,15.762C4.334,15.95,4.228,16.2,4.228,16.467c0,0.269,0.105,0.521,0.293,0.707
		c0.188,0.188,0.442,0.293,0.707,0.293h4.334v-2H5.229C4.963,15.469,4.708,15.573,4.521,15.762z"/>
</g>
<path fill="#FFFFFF" d="M14.133,23.708c0.426,0,0.771-0.346,0.771-0.77v-5.313l1.357,1.359c0.301,0.3,0.787,0.3,1.088,0
	c0.3-0.301,0.3-0.788,0-1.089l-2.672-2.671c-0.021-0.021-0.037-0.035-0.06-0.055c-0.008-0.007-0.021-0.014-0.022-0.021
	c-0.015-0.008-0.021-0.02-0.035-0.024c-0.012-0.007-0.021-0.015-0.031-0.021c-0.014-0.007-0.021-0.016-0.031-0.021
	c-0.014-0.006-0.023-0.013-0.035-0.019c-0.012-0.005-0.021-0.011-0.033-0.017c-0.012-0.006-0.021-0.01-0.031-0.015
	c-0.016-0.004-0.024-0.01-0.036-0.013c-0.015-0.004-0.021-0.008-0.037-0.01c-0.015-0.004-0.021-0.01-0.037-0.012
	c-0.014-0.002-0.024-0.004-0.041-0.007c-0.012-0.001-0.021-0.003-0.03-0.004c-0.024-0.003-0.052-0.004-0.076-0.004
	c-0.023,0-0.051,0.001-0.076,0.004c-0.01,0.001-0.021,0.003-0.031,0.004c-0.016,0.003-0.027,0.005-0.041,0.007
	s-0.025,0.008-0.037,0.012c-0.014,0.002-0.025,0.006-0.035,0.01c-0.014,0.003-0.024,0.009-0.037,0.013
	c-0.012,0.005-0.021,0.009-0.035,0.015c-0.01,0.006-0.021,0.012-0.031,0.017c-0.014,0.006-0.021,0.013-0.032,0.019
	c-0.014,0.006-0.021,0.015-0.03,0.021c-0.013,0.006-0.021,0.014-0.031,0.021c-0.015,0.009-0.023,0.021-0.035,0.024
	c-0.008,0.007-0.021,0.014-0.025,0.021c-0.02,0.02-0.037,0.034-0.057,0.055l-2.672,2.671c-0.303,0.301-0.303,0.788,0,1.089
	c0.301,0.3,0.787,0.3,1.088,0l1.357-1.359v5.313C13.364,23.363,13.708,23.708,14.133,23.708z"/>
</svg>
