<?xml version="1.0" encoding="utf-8"?>
<!-- Generator: Adobe Illustrator 16.0.0, SVG Export Plug-In . SVG Version: 6.00 Build 0)  -->
<!DOCTYPE svg PUBLIC "-//W3C//DTD SVG 1.1//EN" "http://www.w3.org/Graphics/SVG/1.1/DTD/svg11.dtd">
<svg version="1.1" id="Calque_1" xmlns="http://www.w3.org/2000/svg" xmlns:xlink="http://www.w3.org/1999/xlink" x="0px" y="0px"
	 width="24px" height="24px" viewBox="29 21 24 24" enable-background="new 29 21 24 24" xml:space="preserve">
<g>
	<path fill="#0072B1" d="M32.84,21h16.32c2.12,0,3.84,1.719,3.84,3.84v16.32c0,2.12-1.72,3.84-3.84,3.84H32.84
		C30.719,45,29,43.28,29,41.16V24.84C29,22.719,30.719,21,32.84,21z"/>
	<path fill="#FFFFFF" d="M45.237,37.237H42.8V37.8h3v-3h-0.563V37.237z"/>
	<path fill="#FFFFFF" d="M36.763,28.763H39.2V28.2h-3v3h0.563V28.763z"/>
	<path fill="#FFFFFF" d="M42.8,28.2v0.563h2.438V31.2H45.8v-3H42.8z"/>
	<path fill="#FFFFFF" d="M36.763,34.8H36.2v3h3v-0.563h-2.438V34.8z"/>
	<path fill="#FFFFFF" d="M37.344,32.156h2.813v-2.813h-2.813V32.156z M38.469,30.469h0.563v0.563h-0.563V30.469z"/>
	<path fill="#FFFFFF" d="M37.344,36.647h2.813v-2.794h-2.813V36.647z M38.469,34.969h0.563v0.563h-0.563V34.969z"/>
	<path fill="#FFFFFF" d="M44.656,33.844h-2.813v2.813h2.813V33.844z M43.531,35.531h-0.563v-0.563h0.563V35.531z"/>
	<path fill="#FFFFFF" d="M44.656,29.344h-2.813v2.813h2.813V29.344z M43.531,31.031h-0.563v-0.563h0.563V31.031z"/>
	<path fill="#FFFFFF" d="M44.558,33.281v-0.563h-3.276v-3.375h-0.563v3.375h-3.276v0.563h3.276v3.375h0.563v-3.375H44.558z"/>
</g>
</svg>
