<svg width="18" height="18" viewBox="0 0 18 18" fill="none" xmlns="http://www.w3.org/2000/svg">
<path d="M17.19 2.7H12.15V1.35C12.15 0.991958 12.0078 0.64858 11.7546 0.395406C11.5014 0.142232 11.158 0 10.8 0L7.2 0C6.84196 0 6.49858 0.142232 6.24541 0.395406C5.99223 0.64858 5.85 0.991958 5.85 1.35V2.7H0.81C0.595175 2.7 0.389148 2.78534 0.237244 2.93724C0.0853391 3.08915 0 3.29517 0 3.51C0 3.72483 0.0853391 3.93085 0.237244 4.08276C0.389148 4.23466 0.595175 4.32 0.81 4.32H1.9908L3.6 18H14.4L16.0092 4.32H17.19C17.4048 4.32 17.6109 4.23466 17.7628 4.08276C17.9147 3.93085 18 3.72483 18 3.51C18 3.29517 17.9147 3.08915 17.7628 2.93724C17.6109 2.78534 17.4048 2.7 17.19 2.7ZM7.47 1.62H10.53V2.7H7.47V1.62ZM12.96 16.38H5.04L3.6216 4.32H14.3784L12.96 16.38ZM7.2 13.5C7.02098 13.5 6.84929 13.4289 6.7227 13.3023C6.59612 13.1757 6.525 13.004 6.525 12.825V6.975C6.525 6.79598 6.59612 6.62429 6.7227 6.4977C6.84929 6.37112 7.02098 6.3 7.2 6.3C7.37902 6.3 7.55071 6.37112 7.6773 6.4977C7.80388 6.62429 7.875 6.79598 7.875 6.975V12.825C7.875 13.004 7.80388 13.1757 7.6773 13.3023C7.55071 13.4289 7.37902 13.5 7.2 13.5ZM10.8 13.5C10.621 13.5 10.4493 13.4289 10.3227 13.3023C10.1961 13.1757 10.125 13.004 10.125 12.825V6.975C10.125 6.79598 10.1961 6.62429 10.3227 6.4977C10.4493 6.37112 10.621 6.3 10.8 6.3C10.979 6.3 11.1507 6.37112 11.2773 6.4977C11.4039 6.62429 11.475 6.79598 11.475 6.975V12.825C11.475 13.004 11.4039 13.1757 11.2773 13.3023C11.1507 13.4289 10.979 13.5 10.8 13.5Z" fill="black"/>
</svg>
